<svg width="460" height="47" viewBox="0 0 460 47" fill="none" xmlns="http://www.w3.org/2000/svg">
<path d="M0.124876 3.36262C0.128133 2.26036 1.0226 1.36853 2.12487 1.36853H22.0997C29.5535 1.36853 35.1765 7.65438 35.1765 14.8569C35.1765 25.9881 27.592 28.4762 18.2421 28.4762C17.3921 28.4762 16.6075 28.4762 15.6921 28.4108C15.6406 28.4108 15.6297 39.1018 15.6273 43.6364C15.6268 44.7409 14.7313 45.6314 13.6267 45.6314H2.00592C0.899042 45.6314 0.00265606 44.7323 0.00592614 43.6255L0.124876 3.36262Z" fill="url(#paint0_linear_30_56)"/>
<path d="M38.5732 3.36853C38.5732 2.26396 39.4686 1.36853 40.5732 1.36853H60.8929C67.9413 1.36853 73.4233 7.76641 73.4233 14.4907C73.4233 19.1039 71.4365 23.8662 67.4197 26.3503C66.443 26.9542 65.9218 28.1683 66.3916 29.2162L72.4864 42.8133C73.0796 44.1365 72.1114 45.6314 70.6614 45.6314H40.5731C39.4686 45.6314 38.5732 44.7359 38.5732 43.6314V3.36853Z" fill="url(#paint1_linear_30_56)"/>
<path d="M99.3695 0.91687C111.94 0.91687 121.919 10.9969 121.919 23.4676C121.919 35.9384 111.875 46.083 99.4991 46.083C87.1231 46.083 76.8205 35.9384 76.8205 23.6615C76.8205 11.3846 86.7991 0.91687 99.3695 0.91687Z" fill="url(#paint2_linear_30_56)"/>
<path d="M126.4 3.36262C126.403 2.26036 127.298 1.36853 128.4 1.36853H148.375C155.828 1.36853 161.451 7.65438 161.451 14.8569C161.451 25.9881 153.867 28.4762 144.517 28.4762C143.667 28.4762 142.882 28.4762 141.967 28.4108C141.916 28.4108 141.905 39.1018 141.902 43.6364C141.902 44.7409 141.006 45.6314 139.902 45.6314H128.281C127.174 45.6314 126.278 44.7323 126.281 43.6255L126.4 3.36262Z" fill="url(#paint3_linear_30_56)"/>
<path d="M165.109 3.36853C165.109 2.26396 166.004 1.36853 167.109 1.36853H183.633C184.737 1.36853 185.633 2.26396 185.633 3.36853V12.0337C185.633 13.1383 186.528 14.0337 187.633 14.0337H192.088C193.192 14.0337 194.088 14.9291 194.088 16.0337V25.4823C194.088 26.5869 194.983 27.4823 196.088 27.4823H199.187C200.292 27.4823 201.187 28.3777 201.187 29.4823V43.6314C201.187 44.7359 200.292 45.6314 199.187 45.6314H167.109C166.004 45.6314 165.109 44.7359 165.109 43.6314V3.36853Z" fill="url(#paint4_linear_30_56)"/>
<path d="M204.594 3.36853C204.594 2.26396 205.489 1.36853 206.594 1.36853H226.914C233.962 1.36853 239.444 7.76641 239.444 14.4907C239.444 19.1039 237.457 23.8662 233.441 26.3503C232.464 26.9542 231.943 28.1683 232.412 29.2162L238.507 42.8133C239.1 44.1365 238.132 45.6314 236.682 45.6314H206.594C205.489 45.6314 204.594 44.7359 204.594 43.6314V3.36853Z" fill="url(#paint5_linear_30_56)"/>
<path d="M251.757 18.3795C251.754 17.2767 250.86 16.3839 249.757 16.3839H244.505C243.4 16.3839 242.505 15.4885 242.505 14.3839V3.36853C242.505 2.26396 243.4 1.36853 244.505 1.36853H276.583C277.688 1.36853 278.583 2.26396 278.583 3.36853V14.3187C278.583 15.4232 277.688 16.3187 276.583 16.3187H271.596C270.492 16.3187 269.596 17.2141 269.596 18.3187V43.6314C269.596 44.7359 268.701 45.6314 267.596 45.6314H253.813C252.71 45.6314 251.815 44.7387 251.813 43.6358L251.757 18.3795Z" fill="url(#paint6_linear_30_56)"/>
<path d="M282.238 4.43787C281.395 3.10619 282.352 1.36853 283.928 1.36853H321.371C322.945 1.36853 323.902 3.10243 323.063 4.43427L311.488 22.8156C311.287 23.1348 311.181 23.5042 311.181 23.8814V43.6314C311.181 44.7359 310.285 45.6314 309.181 45.6314H296.175C295.07 45.6314 294.175 44.7359 294.175 43.6314V23.8837C294.175 23.5051 294.067 23.1343 293.865 22.8143L282.238 4.43787Z" fill="url(#paint7_linear_30_56)"/>
<path d="M330.159 31.1915C334.329 31.1915 337.326 34.6496 337.326 38.6949C337.326 42.7403 334.394 46.0679 330.159 46.0679C326.184 46.0679 322.731 42.675 322.731 38.6949C322.731 34.7149 326.119 31.1915 330.159 31.1915Z" fill="url(#paint8_linear_30_56)"/>
<path d="M346.762 3.37442C346.759 2.26755 347.656 1.36853 348.762 1.36853H376.814C377.919 1.36853 378.814 2.26396 378.814 3.36853V13.47C378.814 14.5745 377.919 15.47 376.814 15.47H371.692C370.587 15.47 369.692 16.3654 369.692 17.47V27.9631C369.692 29.0677 368.796 29.9631 367.692 29.9631H364.134C363.029 29.9631 362.134 30.8585 362.134 31.9631V43.6314C362.134 44.7359 361.238 45.6314 360.134 45.6314H348.881C347.779 45.6314 346.884 44.7395 346.881 43.6373L346.762 3.37442Z" fill="url(#paint9_linear_30_56)"/>
<path d="M382.007 21.239C382.007 15.013 382.043 7.01363 382.061 3.35486C382.067 2.25471 382.96 1.36853 384.061 1.36853H416.104C417.208 1.36853 418.104 2.25628 418.101 3.36084C418.092 8.12119 418.049 20.329 417.843 27.9899C417.648 37.5431 409.699 45.6314 399.729 45.6314C389.76 45.6314 382.658 38.3073 382.072 29.2637C382.007 28.7542 382.007 25.4424 382.007 21.239Z" fill="url(#paint10_linear_30_56)"/>
<path d="M422.209 4.73837C422.209 3.22008 423.834 2.25547 425.167 2.98276L443.359 12.9104C444.692 13.6377 446.317 12.673 446.317 11.1548V3.36853C446.317 2.26396 447.212 1.36853 448.317 1.36853H458C459.105 1.36853 460 2.26396 460 3.36853V43.6314C460 44.7359 459.105 45.6314 458 45.6314H424.209C423.104 45.6314 422.209 44.7359 422.209 43.6314V4.73837Z" fill="url(#paint11_linear_30_56)"/>
<rect x="170" y="7.19153" width="10" height="9.97534" rx="2" fill="black"/>
<rect x="170" y="19.8165" width="10" height="9.97534" rx="2" fill="black"/>
<rect x="182.25" y="31.6915" width="10" height="9.97534" rx="2" fill="black"/>
<defs>
<linearGradient id="paint0_linear_30_56" x1="17.5882" y1="1.36853" x2="17.5882" y2="45.6314" gradientUnits="userSpaceOnUse">
<stop stop-color="#F3C078"/>
<stop offset="1" stop-color="#F9454E"/>
</linearGradient>
<linearGradient id="paint1_linear_30_56" x1="56.1614" y1="1.36853" x2="56.1614" y2="45.6314" gradientUnits="userSpaceOnUse">
<stop stop-color="#B4B9E2"/>
<stop offset="1" stop-color="#8CDD34"/>
</linearGradient>
<linearGradient id="paint2_linear_30_56" x1="99.3695" y1="0.91687" x2="99.3695" y2="46.083" gradientUnits="userSpaceOnUse">
<stop stop-color="#EBC5B4"/>
<stop offset="1" stop-color="#E483CA"/>
</linearGradient>
<linearGradient id="paint3_linear_30_56" x1="143.863" y1="1.36853" x2="143.863" y2="45.6314" gradientUnits="userSpaceOnUse">
<stop stop-color="#D9BDE4"/>
<stop offset="1" stop-color="#668CC4"/>
</linearGradient>
<linearGradient id="paint4_linear_30_56" x1="183.148" y1="1.36853" x2="183.148" y2="45.6314" gradientUnits="userSpaceOnUse">
<stop stop-color="#F3C078"/>
<stop offset="1" stop-color="#F9454E"/>
</linearGradient>
<linearGradient id="paint5_linear_30_56" x1="222.182" y1="1.36853" x2="222.182" y2="45.6314" gradientUnits="userSpaceOnUse">
<stop stop-color="#B4B9E2"/>
<stop offset="1" stop-color="#8CDD34"/>
</linearGradient>
<linearGradient id="paint6_linear_30_56" x1="260.544" y1="1.36853" x2="260.544" y2="45.6314" gradientUnits="userSpaceOnUse">
<stop stop-color="#EBC5B4"/>
<stop offset="1" stop-color="#E483CA"/>
</linearGradient>
<linearGradient id="paint7_linear_30_56" x1="302.645" y1="1.36853" x2="302.645" y2="45.6314" gradientUnits="userSpaceOnUse">
<stop stop-color="#D9BDE4"/>
<stop offset="1" stop-color="#668CC4"/>
</linearGradient>
<linearGradient id="paint8_linear_30_56" x1="330.028" y1="31.1915" x2="330.028" y2="46.0679" gradientUnits="userSpaceOnUse">
<stop stop-color="#F3C078"/>
<stop offset="1" stop-color="#F9454E"/>
</linearGradient>
<linearGradient id="paint9_linear_30_56" x1="362.785" y1="1.36853" x2="362.785" y2="45.6314" gradientUnits="userSpaceOnUse">
<stop stop-color="#B4B9E2"/>
<stop offset="1" stop-color="#8CDD34"/>
</linearGradient>
<linearGradient id="paint10_linear_30_56" x1="400.055" y1="1.36853" x2="400.055" y2="45.6314" gradientUnits="userSpaceOnUse">
<stop stop-color="#EBC5B4"/>
<stop offset="1" stop-color="#E483CA"/>
</linearGradient>
<linearGradient id="paint11_linear_30_56" x1="441.104" y1="1.36853" x2="441.104" y2="45.6314" gradientUnits="userSpaceOnUse">
<stop stop-color="#D9BDE4"/>
<stop offset="1" stop-color="#668CC4"/>
</linearGradient>
</defs>
</svg>
